<?xml version="1.0" standalone="no"?>
<!DOCTYPE svg PUBLIC "-//W3C//DTD SVG 20010904//EN"
 "http://www.w3.org/TR/2001/REC-SVG-20010904/DTD/svg10.dtd">
<svg version="1.0" xmlns="http://www.w3.org/2000/svg"
 width="120.000000pt" height="120.000000pt" viewBox="0 0 120.000000 120.000000"
 preserveAspectRatio="xMidYMid meet">

<g transform="translate(0.000000,120.000000) scale(0.100000,-0.100000)"
fill="#000000" stroke="none">
<path d="M655 1110 c-49 -13 -106 -40 -110 -53 -56 -160 -95 -204 -229 -257
-110 -44 -165 -90 -207 -176 -25 -51 -32 -77 -32 -122 1 -72 18 -113 77 -181
26 -30 62 -76 79 -103 62 -96 233 -152 372 -123 38 8 87 15 107 15 20 0 76 14
125 31 85 30 122 48 76 36 -17 -4 -23 -1 -23 11 0 13 -3 12 -15 -5 -18 -26
-77 -50 -144 -59 -46 -6 -55 -4 -76 16 -14 13 -25 18 -25 12 0 -6 5 -14 11
-18 8 -4 7 -9 -2 -15 -21 -13 -29 -11 -29 9 0 32 -13 42 -35 26 -15 -11 -16
-17 -7 -26 7 -7 12 -15 12 -19 0 -11 -98 -10 -135 1 -16 4 -43 11 -59 15 -16
3 -45 23 -65 43 -19 20 -29 29 -22 19 21 -27 7 -30 -17 -4 -23 24 -21 70 3 61
19 -8 32 22 46 102 16 96 37 147 96 234 53 80 138 230 130 230 -3 0 -27 -37
-53 -82 -26 -46 -64 -108 -84 -138 -60 -89 -79 -134 -100 -236 -10 -53 -22
-99 -25 -102 -3 -3 -12 3 -21 14 -12 15 -15 16 -10 2 2 -9 -1 -19 -9 -22 -9
-3 -19 9 -29 37 -8 23 -15 33 -15 23 -1 -18 -3 -18 -26 4 -24 23 -35 47 -15
35 22 -13 8 10 -30 51 -22 24 -40 52 -41 61 -2 38 3 66 22 109 24 53 20 82 -4
33 -9 -19 -17 -28 -17 -21 0 7 7 27 17 45 43 85 90 122 207 167 150 58 168 75
207 195 19 59 25 61 48 17 25 -50 42 -56 99 -37 46 16 72 14 72 -5 0 -5 -8
-10 -17 -10 -22 -1 -57 -46 -43 -55 5 -3 10 -1 10 5 0 6 4 9 8 6 5 -3 7 -19 4
-36 -2 -18 0 -30 7 -30 6 0 11 5 11 11 0 7 11 9 29 6 19 -4 31 -2 34 6 5 16
37 -9 37 -29 0 -7 6 -11 14 -8 8 3 17 1 21 -5 3 -6 -2 -11 -12 -11 -10 0 2 -9
26 -20 24 -11 54 -20 67 -20 13 0 28 -9 34 -20 6 -11 16 -20 22 -20 26 0 87
-100 99 -163 11 -60 3 -138 -13 -116 -6 10 -8 0 -4 -29 4 -25 3 -41 -3 -38
-18 11 -57 -76 -52 -116 1 -9 -8 -22 -21 -29 -13 -7 -29 -19 -36 -28 -8 -9
-11 -10 -7 -3 3 6 1 12 -5 12 -7 0 -10 -7 -6 -15 3 -8 0 -15 -6 -15 -6 0 -9
-3 -6 -6 9 -8 49 14 86 49 24 24 40 55 63 127 42 129 42 189 0 274 -36 73 -82
118 -182 177 -96 56 -146 123 -165 224 -6 34 -38 86 -52 84 -4 -1 -20 -5 -37
-9z m65 -29 c15 -28 13 -88 -4 -94 -7 -3 -34 -8 -59 -12 -44 -7 -47 -6 -66 26
-12 19 -21 42 -21 52 0 16 5 17 32 11 37 -8 78 -32 78 -45 0 -5 4 -9 8 -9 4 0
8 16 9 35 1 24 -3 35 -13 35 -8 0 -14 5 -14 10 0 18 39 11 50 -9z m20 -167 c0
-8 -4 -12 -10 -9 -5 3 -10 10 -10 16 0 5 5 9 10 9 6 0 10 -7 10 -16z m15 -34
c3 -5 1 -10 -4 -10 -6 0 -11 5 -11 10 0 6 2 10 4 10 3 0 8 -4 11 -10z m292
-602 c-3 -8 -6 -5 -6 6 -1 11 2 17 5 13 3 -3 4 -12 1 -19z"/>
<path d="M550 970 c0 -18 4 -29 10 -25 6 3 10 15 10 25 0 10 -4 22 -10 25 -6
4 -10 -7 -10 -25z"/>
<path d="M626 925 c-12 -32 -7 -85 9 -85 12 0 13 9 8 48 -7 55 -8 58 -17 37z"/>
<path d="M372 763 c-113 -66 -163 -110 -200 -181 -34 -64 -43 -99 -16 -66 8
10 13 13 9 7 -3 -8 0 -13 8 -13 9 0 38 29 66 65 34 43 70 76 106 96 67 38 73
49 8 15 -59 -31 -79 -48 -128 -109 -40 -50 -61 -58 -28 -10 11 15 18 35 16 43
-4 12 -3 12 5 1 6 -8 12 -9 16 -3 3 6 2 13 -4 17 -6 4 -8 11 -4 16 3 5 9 7 14
4 4 -3 10 5 13 16 3 11 15 23 26 26 12 3 21 9 21 14 0 4 11 14 24 21 92 51
148 88 133 88 -2 0 -40 -21 -85 -47z"/>
<path d="M691 707 c-1 -85 5 -139 29 -254 33 -160 37 -213 17 -213 -23 0 -37
23 -37 61 0 21 -4 40 -9 43 -12 8 -23 138 -21 264 1 81 -2 112 -11 112 -17 0
-5 -304 15 -395 15 -69 44 -111 70 -102 21 7 17 84 -9 213 -15 71 -30 185 -34
254 l-8 125 -2 -108z"/>
<path d="M587 674 c-49 -144 -46 -158 4 -20 22 60 38 114 36 119 -1 5 -19 -40
-40 -99z"/>
<path d="M760 775 c0 -14 72 -137 115 -194 18 -26 52 -85 74 -131 44 -91 53
-152 25 -168 -21 -12 -54 -4 -54 12 0 7 -11 23 -25 36 -30 29 -24 41 7 14 19
-16 19 -14 -3 11 -14 17 -30 42 -37 58 -6 15 -16 27 -21 27 -6 0 -8 7 -5 15 3
8 -4 34 -15 58 -12 24 -28 66 -35 93 -22 77 -48 145 -53 140 -10 -10 80 -294
118 -373 41 -86 79 -121 118 -108 31 10 45 57 31 102 -20 60 -69 153 -116 220
-24 34 -62 92 -84 130 -22 37 -40 63 -40 58z"/>
<path d="M946 709 c29 -29 64 -73 78 -96 15 -25 33 -43 44 -42 10 0 12 3 5 6
-7 2 -13 11 -13 19 0 8 -4 14 -9 14 -5 0 -12 7 -15 16 -5 12 -2 15 11 10 12
-4 9 1 -6 12 -12 9 -42 33 -65 52 -73 62 -82 65 -30 9z"/>
<path d="M514 623 l-49 -128 0 -125 c0 -143 13 -185 55 -185 23 0 25 4 24 40
-1 22 -6 81 -12 130 l-11 90 6 -90 c9 -162 9 -159 -8 -163 -11 -2 -20 8 -27
27 -6 17 -8 31 -4 31 4 0 7 37 7 83 1 47 -2 71 -6 57 -6 -20 -7 -21 -8 -5 0
11 6 43 14 70 9 28 13 60 10 73 -4 16 -1 22 12 22 13 0 14 3 5 8 -9 6 -5 29
18 97 16 49 28 90 26 92 -2 2 -25 -54 -52 -124z"/>
<path d="M400 638 c-86 -107 -116 -162 -130 -238 -6 -33 -5 -51 6 -70 l15 -25
-5 25 c-3 16 4 47 20 79 16 35 19 49 9 41 -12 -10 -15 -10 -15 3 0 9 7 22 15
31 9 8 14 21 13 28 -2 7 2 12 9 11 7 -2 21 11 33 27 19 27 19 29 3 23 -12 -5
-6 7 17 36 59 73 102 131 97 131 -3 0 -42 -46 -87 -102z"/>
<path d="M836 718 c10 -13 43 -49 72 -81 29 -32 62 -77 73 -99 28 -54 34 -43
9 16 -20 45 -33 62 -84 116 -52 55 -109 94 -70 48z"/>
<path d="M1037 496 c-8 -19 3 -57 14 -50 12 7 12 64 0 64 -5 0 -11 -6 -14 -14z"/>
<path d="M817 329 c-4 -16 -3 -18 9 -8 16 13 19 29 5 29 -5 0 -11 -9 -14 -21z"/>
<path d="M820 299 c-12 -7 -12 -11 -2 -17 8 -5 10 -16 6 -27 -5 -13 -4 -16 4
-11 16 10 15 -6 0 -24 -11 -12 -10 -12 5 -1 10 8 17 27 17 47 0 37 -9 47 -30
33z"/>
<path d="M846 191 c-4 -7 -5 -15 -2 -18 9 -9 19 4 14 18 -4 11 -6 11 -12 0z"/>
</g>
</svg>
